<?xml version="1.0" encoding="UTF-8" standalone="no"?>
<svg
   viewBox="0 0 1534.89 666.12"
   version="1.1"
   id="svg1"
   sodipodi:docname="Samla_black.svg"
   inkscape:version="1.4.2 (ebf0e940, 2025-05-08)"
   xmlns:inkscape="http://www.inkscape.org/namespaces/inkscape"
   xmlns:sodipodi="http://sodipodi.sourceforge.net/DTD/sodipodi-0.dtd"
   xmlns="http://www.w3.org/2000/svg"
   xmlns:svg="http://www.w3.org/2000/svg">
  <sodipodi:namedview
     id="namedview1"
     pagecolor="#ffffff"
     bordercolor="#000000"
     borderopacity="0.25"
     inkscape:showpageshadow="2"
     inkscape:pageopacity="0.0"
     inkscape:pagecheckerboard="0"
     inkscape:deskcolor="#d1d1d1"
     inkscape:zoom="0.54205838"
     inkscape:cx="768.36742"
     inkscape:cy="332.98996"
     inkscape:window-width="1744"
     inkscape:window-height="1264"
     inkscape:window-x="672"
     inkscape:window-y="32"
     inkscape:window-maximized="0"
     inkscape:current-layer="svg1" />
  <defs
     id="defs1">
    <style
       id="style1">.d{fill:#fff;}</style>
  </defs>
  <g
     id="b">
    <g
       id="c">
      <path
         class="d"
         d="M1527.58,596.58c-1.85-20.61-.65-36.99-.08-44.21,2.76-35.37,11.15-50.03,1.81-69.09-2.02-4.12-5.34-10.9-12.65-15.53-6.19-3.92-21.01-9.96-58.09,7.48-33.23,15.62-50.05,33.98-64.99,46.01-54.97,44.26-146.3,52.59-169.08,22.43-13.33-17.65-7.76-54.51,9.2-70.16,5.5-5.08,9.73-5.64,24.73-17.25,8.57-6.64,14.9-12.43,24.73-21.85,1.79-1.72,27.85-26.75,41.41-41.41,92.89-100.41,120.77-171.38,120.77-171.38,34.35-87.42,33.19-203.82-5.18-219.69-26.42-10.93-66.04,27.66-87.33,48.41-36.12,35.18-53.82,75.38-89.23,155.76-2.99,6.79-16.27,37.09-31.63,77.64-13.37,35.28-11.87,34.94-36.23,102.37-4.73,13.1-8.02,22.05-12.08,35.66-11.08,37.13-7.86,41.62-14.38,55.79-3.12,6.79-6.05,10.5-58.66,52.34-19.33,15.37-35.85,28.32-61.03,39.56-19.48,8.7-29.99,10.05-36.73,5.3-5.8-4.09-7.68-11.9-10.93-25.3-4.24-17.54-1.47-22.15-6.64-27.99-8.58-9.7-25.3-7.31-26.71-7.09-9.64,1.51-16.2,6.75-29.33,17.25-13.98,11.18-17.99,17.58-26.06,17.09-4.47-.27-9.66-2.63-12.8-6.87-8.28-11.14,5.2-24.91-2.55-38.4-3.37-5.87-10.07-10.5-16.68-10.93-9.41-.61-11.23,7.79-27.03,14.38-11.18,4.66-14.05,2.03-25.3,7.48-7.29,3.53-10.36,6.7-16.68,11.5-11.95,9.09-33.66,25.59-57.51,23-7.5-.81-12.47-1.35-15.82-5.34-11.09-13.21,14.14-42.33,2.3-58.32-3.45-4.66-9.69-7.73-15.24-7.65-10.64,.14-12.74,11.75-27.82,16.81-9.18,3.08-11.3-.24-21.07,3.32-10.68,3.9-16.89,11.08-18.98,13.23-20.61,21.26-98.56,42.1-118.47,16.68-6.73-8.59-5.8-21.12-4.89-33.36,1.22-16.47,6.71-20.82,9.92-42.27,2.3-15.36,4-26.72-2.28-32.76-6.58-6.33-18.41-2.51-31.5-.3-31.78,5.36-49.91,16.04-71.89,25.3-41.49,17.49-37.86,5.12-81.01,22.54-17.35,7-62.21,26.88-79.44,20.59-1.7-.62-6.67-2.44-8.63-6.9-2.46-5.63,1.31-12.23,2.44-14.38,8.41-16.04,6.61-46.04,1.9-62.14-9.09-31.03-39.67-46.7-44.02-48.85-24.19-11.97-41.37-5.72-43.71-13.23-1.19-3.81,1.45-11.11,74.19-55.79,8.88-5.45,34.86-21.26,71.31-36.23,28.47-11.69,42.6-14.36,48.88-8.05,7.13,7.16-1,20.7,9.23,35.02,1.09,1.52,8.39,11.73,15.5,10.99,20.28-2.12,40.29-93.5,13.8-110.42-9.25-5.91-21.92-1.3-33.93,3.45-78.61,31.11-140.5,73.09-163.91,89.14-29.3,20.09-57.74,41.43-87.42,60.96-54.41,35.81-92.97,57.3-89.14,77.06,.79,4.1,3.58,9.02,8.02,11.17,11.37,5.51,25.6-11.02,42.02-19.22,31.99-15.97,83.56-5.95,105.95,24.91,14.79,20.38,19.45,53.42,4.55,71.71-3.85,4.72-10.25,10-37.47,16.68-28.58,7.01-50.99,8.43-75.05,9.83-66.64,3.88-79,4.22-86.86,14.99-8.33,11.41-7.48,28.88-1.42,40.74,16.33,31.98,75.52,33.07,108.7,28.18,49.48-7.3,106.09-37.5,133.88-65.47,5.98-6.02,17.73-19.08,37.5-25.4,14.17-4.53,16.43-.47,33.93-6.33,10.31-3.45,18.77-7.95,35.9-12.09,9.17-2.22,14.84-2.88,17.07,0,2.5,3.22-.46,9.4-1.79,12.09-6.55,13.31-17.89,19.12-27.03,25.3-8.97,6.07-30.07,20.34-36.06,40.01-4.09,13.42-2.36,33.32,9.03,43.96,21.27,19.85,73.68,5.06,106.73-20.33,30.44-23.38,37.17-50.14,58.33-49.26,13.86,.57,14.51,12.21,34.51,22.43,30.96,15.83,71.2,9.31,97.77-2.88,27.94-12.81,39.55-31.34,50.03-25.88,10.93,5.69,2.67,28.09,19.55,43.13,7.68,6.85,16.58,8.62,25.3,10.35,6.6,1.31,23.99,3.82,42.56-4.03,13.63-5.76,11.76-10.29,25.88-16.68,5.91-2.67,24.16-10.93,41.54-5.09,15.32,5.16,12.14,15.28,27.72,22.4,15.86,7.25,39.32,5.98,56.69-2.94,8.26-4.24,13.66-9.45,22.42-8.38,7.59,.93,12.61,5.95,17.07,10.24,12.69,12.21,28.24,25.61,33.55,29.19,30.58,20.57,110.2-23.47,155.28-59.81,10.71-8.64,31.6-26.61,39.11-21.28,4.19,2.98,.71,10.73,2.4,19.58,4.24,22.23,38.65,38.67,67.09,41.79,31.06,3.42,78.15-6.5,106.5-25.15,3.63-2.39,17.04-11.56,24.73-6.9,4.97,3.01,3.07,9.4,9.78,15.53,6.15,5.61,14.31,6.31,17.83,6.61,8.65,.74,8.9-2.4,18.55-1.73,7.97,.55,10.41,2.89,15.47,1.1,1.01-.36,2.27-.93,8.97-6.88,9.09-8.07,10.21-10.07,12.97-10.27,5.66-.42,10.52,7.24,11.91,9.44,8.44,13.37,3.28,23.91,6.33,40.26,2.92,15.68,13.67,38.11,31.73,41.9,8.32,1.74,20.44,0,26.93-7.97,9.06-11.12-.24-25.28-3.45-60.96Zm-254.2-284.68c5.36-14.78,50.84-140.82,89.21-201.58,6.35-10.05,18.19-27.32,33.95-27.35,0,0,9.56-.02,17.84,7.38,23.97,21.42-.68,96.04-21.95,141.03,0,0-28.34,59.93-97.19,135.73-5.8,6.38-13.83,14.61-29.91,31.06-27.65,28.3-29.83,29.4-31.06,28.76-6.27-3.29,15.67-50.44,39.11-115.02Zm-857.49,240.97c-15.99,15.4-44.65,37.94-54.06,31.06-3.21-2.35-3.76-7.81-3.45-10.93,.72-7.38,7.25-12.27,10.93-14.95,28.13-20.48,41.96-28.23,41.96-28.23,28.09-15.74,33.97-21.15,35.71-19.31,3.25,3.44-13.9,25.81-31.08,42.36Z"
         id="path1"
         style="fill:#000000;fill-opacity:1" />
    </g>
  </g>
</svg>
