<?xml version="1.0" encoding="UTF-8" standalone="no"?>
<svg
   xmlns:dc="http://purl.org/dc/elements/1.1/"
   xmlns:cc="http://creativecommons.org/ns#"
   xmlns:rdf="http://www.w3.org/1999/02/22-rdf-syntax-ns#"
   xmlns:svg="http://www.w3.org/2000/svg"
   xmlns="http://www.w3.org/2000/svg"
   viewBox="0 0 1000.01 1000"
   id="svg2816"
   height="1000"
   width="1000.0059"
   version="1.1">
  <metadata
     id="metadata8">
    <rdf:RDF>
      <cc:Work
         rdf:about="">
        <dc:format>image/svg+xml</dc:format>
        <dc:type
           rdf:resource="http://purl.org/dc/dcmitype/StillImage" />
        <dc:title></dc:title>
      </cc:Work>
    </rdf:RDF>
  </metadata>
  <defs
     id="defs2820" />
  <path
     id="rect5061-5-2-5"
     d="m 50.0058,0 c -27.7,0 -50,22.3 -50,50 V 489.40039 H 1000.0059 V 50 c 0,-27.7 -22.3,-50 -50,-50 z m 373.1387,40.35547 c 0.6205,-0.0167 1.2142,-0.0251 1.8164,0 5.7805,0.23485 10.6323,2.31072 13.2539,7.52734 61.7943,79.52137 174.07,69.1181 300.418,68.29492 l 229.2403,-3.67968 C 862.291,139.30518 730.4312,141.15966 629.082,141.3457 c -96.3025,1.14444 -137.9292,3.63371 -201.4395,-40.45508 -4.9777,-2.67335 -5.2488,-2.61652 -12.3847,2.45899 -38.6741,81.73125 -77.5092,138.2117 -149.9375,205.08984 -40.0265,37.66938 -79.8519,74.58627 -123.8985,110.41407 -11.7035,8.9768 -30.5989,14.12571 -42.2031,23.19531 -27.5698,11.5949 -31.9833,-8.36542 -25.957,-20.38672 4.2276,-4.6056 9.1881,-26.87739 10.0176,-28.96289 5.4356,-13.6693 24.2709,-26.70653 26.1933,-42.08203 -30.7207,13.3443 -33.4643,41.22425 -67.8437,51.33593 -14.7173,0 -21.3972,-17.86696 -8.4453,-28.35156 22.1692,-18.7284 36.8716,-34.72357 51.9394,-55.66601 29.1483,-39.6746 52.0121,-77.55357 76.5254,-118.10547 15.2632,-32.69588 56.2707,-75.67407 26.5059,-107.70508 -10.4866,-10.45925 -15.911,-17.22981 -33.5547,-7.60156 -44.2063,17.81346 -9.0007,23.66811 -17.4864,37.95703 -10.5343,6.91685 -29.8891,0.76002 -37.2636,-9.46289 -6.2032,-11.21438 -2.0559,-25.52189 8.3613,-35.38867 3.1008,-2.50723 16.07,-16.0485 30.873,-22.15235 24.2353,-9.99288 29.7326,-4.5625 40.5254,-4.5625 10.0877,0 14.133,0.9207 25.4805,6.01172 33.9725,17.46502 31.562,56.31695 21.6953,80.97656 -6.8956,22.60325 -27.1731,53.33424 -37.5527,73.08399 -12.978,24.6945 -29.8392,50.67032 -48.9121,74.70312 -3.5574,1.3066 -3.1429,3.74144 0.6308,3.71094 26.0848,-24.0179 50.0788,-51.00194 68.9512,-77.36914 23.7506,-33.18207 37.0461,-68.68674 66.8223,-99.42969 8.8871,-9.17555 28.0258,-11.47107 32.4218,-6.58789 4.1591,31.56796 -40.5461,75.77164 -59.6386,105.9336 -25.8781,31.9024 -58.5991,64.76495 -76.3672,98.62695 -14.0054,26.69124 -43.2582,51.36077 -50.4121,79.35547 42.0701,-24.3589 73.26,-59.23401 107.7246,-89.86719 53.7711,-50.8717 97.6774,-108.25413 133.9726,-165.72656 18.0097,-28.51779 20.325,-55.66674 30.3184,-85.87891 7.9182,-3.56175 19.0981,-7.89423 28.4004,-8.10156 z m 418.1543,210.63476 c 4.5277,0 7.9823,1.3819 10.3613,4.14454 2.3789,2.6859 3.1083,6.25415 2.1875,10.70507 l -30.6211,152.98047 c -2.9162,14.5806 -9.6678,21.8711 -20.2578,21.8711 -4.6044,0 -8.0957,-1.45685 -10.4746,-4.37305 -2.379,-2.9161 -3.1085,-6.67685 -2.1875,-11.28125 l 31.7695,-159.19727 c 0.9209,-4.45092 3.2612,-8.09616 7.0215,-10.93554 3.6068,-2.60916 7.6736,-3.91407 12.2012,-3.91407 z m -55.9434,1.26758 c 4.5277,0 7.867,1.45694 10.0157,4.37305 2.2255,2.91613 2.9163,6.48438 2.0722,10.70508 -2.2255,11.1273 -6.4077,27.70413 -12.5469,49.72851 -6.1392,22.02436 -10.3213,38.59917 -12.5468,49.72657 -5.4485,27.1659 -8.2121,45.3537 -8.2891,54.5625 0,1.2278 -0.1155,2.34029 -0.3457,3.33789 -0.8442,4.2206 -3.069,7.71191 -6.6758,10.47461 -3.6068,2.6859 -7.4445,4.02929 -11.5117,4.02929 -5.6788,0 -9.399,-2.53275 -11.1641,-7.59765 -5.8322,3.1464 -11.7042,5.48668 -17.6132,7.02148 -5.909,1.6115 -11.856,2.41797 -17.8418,2.41797 -17.1897,0 -30.3889,-5.48714 -39.5977,-16.46094 -9.2856,-11.204 -12.2013,-25.47711 -8.748,-42.82031 4.144,-20.643 13.3149,-37.29492 27.5117,-49.95703 14.197,-12.73883 30.6949,-19.10938 49.4961,-19.10938 5.7556,0 10.7441,0.61396 14.9648,1.8418 4.2974,1.22784 7.8657,3.06971 10.7051,5.52539 6.2159,-26.16834 11.0122,-44.2406 14.3887,-54.2168 3.1464,-9.05532 9.0549,-13.58203 17.7265,-13.58203 z m -145.0371,11.04883 c 4.9114,0 8.7856,1.65135 11.625,4.95117 2.9161,3.29982 3.9151,7.32806 2.9942,12.08594 -0.9208,4.75788 -3.5307,8.78612 -7.8282,12.08594 -4.2207,3.29982 -8.7878,4.95117 -13.6992,4.95117 -4.9114,0 -8.824,-1.65135 -11.7402,-4.95117 -2.9161,-3.29982 -3.9132,-7.32806 -2.9922,-12.08594 0.9208,-4.75788 3.5288,-8.78612 7.8262,-12.08594 4.2975,-3.29982 8.903,-4.95117 13.8144,-4.95117 z m -197.9902,49.61328 c 7.674,0 13.1611,0.99695 16.4609,2.99219 4.5274,2.68589 6.0636,7.63606 4.6055,14.84961 -2.7626,13.81322 -7.8669,20.7207 -15.3106,20.7207 -7.5973,0 -11.51,-3.18529 -11.7402,-9.55469 -2.9928,-0.53718 -6.101,-0.80664 -9.3242,-0.80664 -18.4943,0 -28.2407,2.53286 -29.2383,7.59766 -0.614,2.9929 4.1437,7.02104 14.2734,12.08594 13.8132,6.9833 23.0226,12.4319 27.627,16.3457 9.5158,8.0576 13.238,17.15155 11.166,27.28125 -2.6092,13.1993 -10.7446,23.21512 -24.4043,30.04492 -10.9738,5.4486 -23.6744,8.17188 -38.1015,8.17188 -10.2064,0 -19.2232,-1.57235 -27.0508,-4.71875 -10.6668,-4.2974 -15.1551,-10.62944 -13.4668,-18.99414 1.5348,-7.674 6.868,-11.50977 16,-11.50977 3.53,0 8.4031,1.11249 14.6191,3.33789 6.2926,2.2255 11.2409,3.33789 14.8477,3.33789 15.5782,0 24.0196,-3.14685 25.3242,-9.43945 0.7674,-3.9138 -3.7592,-8.25001 -13.582,-13.00781 -14.427,-6.9834 -23.5595,-12.00853 -27.3965,-15.07813 -9.2856,-7.5972 -12.8539,-16.84509 -10.7051,-27.74219 3.0696,-15.42468 13.3144,-25.82351 30.7344,-31.19531 10.2064,-3.14634 25.0934,-4.71875 44.6621,-4.71875 z m 114.6504,0 c 7.674,0 13.161,0.99695 16.4609,2.99219 4.5275,2.68589 6.0615,7.63606 4.6035,14.84961 -2.7627,13.81322 -7.8648,20.7207 -15.3086,20.7207 -7.5973,0 -11.512,-3.18529 -11.7422,-9.55469 -2.9929,-0.53718 -6.1011,-0.80664 -9.3242,-0.80664 -18.4943,0 -28.2407,2.53286 -29.2383,7.59766 -0.6139,2.9929 4.1457,7.02104 14.2754,12.08594 13.8132,6.9833 23.0206,12.4319 27.625,16.3457 9.5157,8.0576 13.238,17.15155 11.1661,27.28125 -2.6092,13.1993 -10.7427,23.21512 -24.4024,30.04492 -10.9738,5.4486 -23.6745,8.17188 -38.1016,8.17188 -10.2064,0 -19.2232,-1.57235 -27.0507,-4.71875 -10.6668,-4.2974 -15.1571,-10.62944 -13.4688,-18.99414 1.5348,-7.674 6.8679,-11.50977 16,-11.50977 3.53,0 8.4033,1.11249 14.6192,3.33789 6.2927,2.2255 11.2428,3.33789 14.8496,3.33789 15.5782,0 24.0196,-3.14685 25.3242,-9.43945 0.7674,-3.9138 -3.7613,-8.25001 -13.584,-13.00781 -14.4272,-6.9834 -23.5575,-12.00853 -27.3945,-15.07813 -9.2855,-7.5972 -12.8539,-16.84509 -10.7051,-27.74219 3.0696,-15.42468 13.3124,-25.82351 30.7324,-31.19531 10.2064,-3.14634 25.0955,-4.71875 44.6641,-4.71875 z m 69.1816,2.1875 c 4.6044,0 8.0957,1.45693 10.4746,4.37305 2.4557,2.83938 3.2216,6.48464 2.3008,10.93555 -1.3814,6.82986 -3.4908,15.38682 -6.3301,25.66992 -2.7627,10.2832 -4.8355,18.84012 -6.2168,25.66992 -0.9209,4.3742 -2.2239,11.39515 -3.9121,21.06445 -1.6116,9.6692 -2.8395,16.69231 -3.6836,21.06641 -0.9209,4.4509 -3.1861,8.13273 -6.7929,11.04883 -3.53,2.8394 -7.5968,4.25976 -12.2012,4.25976 -4.6044,0 -8.1342,-1.42036 -10.5899,-4.25976 -2.3789,-2.9161 -3.1084,-6.59793 -2.1875,-11.04883 0.8441,-4.3741 2.0721,-11.39721 3.6836,-21.06641 1.6883,-9.6693 2.9932,-16.69025 3.9141,-21.06445 1.3813,-6.8298 3.4542,-15.38672 6.2168,-25.66992 2.8394,-10.2831 4.9488,-18.84006 6.3301,-25.66992 0.9209,-4.45091 3.1458,-8.09617 6.6758,-10.93555 3.6068,-2.91612 7.7139,-4.37305 12.3183,-4.37305 z m -320.1211,1.26563 c 15.348,0 26.3202,6.13958 32.9199,18.41797 5.9857,11.05052 7.3292,24.74815 4.0293,41.09375 -3.53,17.8037 -11.3189,32.99868 -23.3671,45.58398 -13.5062,14.0434 -29.2382,21.06445 -47.1954,21.06445 -14.1969,0 -25.4001,-4.87314 -33.6113,-14.61914 -9.1318,-10.6668 -12.1633,-24.90138 -9.0937,-42.70508 2.8394,-16.9595 10.5128,-32.07744 23.0214,-45.35351 14.7341,-15.65495 32.5003,-23.48242 53.2969,-23.48242 z m 622.5137,0 c 15.348,0 26.3223,6.13958 32.9219,18.41797 5.9858,11.05052 7.3291,24.74815 4.0293,41.09375 -3.53,17.8037 -11.319,32.99868 -23.3672,45.58398 -13.5062,14.0434 -29.2381,21.06445 -47.1953,21.06445 -14.1969,0 -25.4021,-4.87314 -33.6133,-14.61914 -9.1317,-10.6668 -12.1633,-24.90138 -9.0938,-42.70508 2.8394,-16.9595 10.5149,-32.07744 23.0235,-45.35351 14.7342,-15.65495 32.4984,-23.48242 53.2949,-23.48242 z m -206.3926,25.55468 c -11.3576,0 -20.5264,3.29884 -27.5097,9.89844 -6.9833,6.5229 -11.7795,16.34625 -14.3887,29.46875 -1.6882,8.2879 -0.077,15.38592 4.834,21.29492 4.9882,5.9089 11.5491,8.86328 19.6836,8.86328 5.9089,0 10.551,-0.68911 13.9277,-2.07031 2.2254,-0.921 6.2557,-3.37666 12.0879,-7.36719 1.4581,-1.07429 2.9535,-2.26375 4.4883,-3.56835 0.5372,-3.6835 3.3375,-17.72766 8.4023,-42.13086 -1.5348,-4.8347 -4.1041,-8.44142 -7.7109,-10.82032 -3.6068,-2.37897 -8.2125,-3.56836 -13.8145,-3.56836 z m -423.6035,4.83399 c -9.439,-0.0767 -17.7649,4.22088 -24.9785,12.89258 -6.0624,7.2902 -10.0542,15.80878 -11.9727,25.55468 -1.8418,9.2089 -0.6523,16.26839 3.5684,21.17969 3.3766,3.9138 7.8281,5.8711 13.3535,5.8711 6.6763,0 12.9294,-2.26332 18.7617,-6.79102 6.5996,-5.2951 11.0128,-12.47009 13.2383,-21.52539 5.909,-24.7103 1.9192,-37.10464 -11.9707,-37.18164 z m 622.5137,0 c -9.439,-0.0767 -17.765,4.22088 -24.9785,12.89258 -6.0625,7.2902 -10.0522,15.80878 -11.9707,25.55468 -1.8417,9.2089 -0.6524,16.26839 3.5683,21.17969 3.3766,3.9138 7.8264,5.8711 13.3516,5.8711 6.6764,0 12.9314,-2.26332 18.7636,-6.79102 6.5998,-5.2951 11.0129,-12.47009 13.2384,-21.52539 5.9089,-24.7103 1.9173,-37.10464 -11.9727,-37.18164 z M 5.291,518.01953 38.0449,532.5918 h 79.1172 l 16.6289,-7.11719 -16.6289,-7.45508 z m 214.2129,0 -32.502,14.57227 v 36.09375 l 32.502,8.47265 z m 70.0097,0 -16.6289,7.45508 16.6289,7.11719 h 79.1153 l 30.9922,-14.57227 z m 181.459,0 -32.5039,14.57227 v 36.09375 l 32.5039,8.47265 z m 12.8145,0 25.9511,14.57227 h 35.5274 l 19.6523,-8.47266 18.3926,8.47266 h 35.2754 l 25.9512,-14.57227 z m 179.455,0 32.754,14.57227 h 79.1152 l 32.5039,-14.57227 z m 181.711,0 v 59.13867 l 32.5019,-8.47265 V 532.5918 Z M 0,520.39062 v 56.76758 l 32.5019,-8.47265 v -33.55274 z m 657.9511,0 v 56.76758 l 32.502,-8.47265 v -33.55274 z m 154.9551,0 -32.5039,14.74219 v 33.55274 l 32.5039,8.47265 z m -248.4922,7.28711 -16.6289,7.96485 v 35.92383 l 16.6289,7.11718 16.377,-7.11718 v -35.92383 z m -425.8359,0.16993 -16.125,7.28515 v 33.55274 l 32.5019,8.47265 v -42.02539 z m 129.0156,0 -16.125,7.28515 v 42.02539 l 32.502,-8.47265 v -33.55274 z m 70.8008,43.21093 -30.7402,7.96289 30.7402,6.7793 h 30.2344 l 30.4882,-6.7793 -30.4882,-7.96289 z m 357.6016,0 -30.4864,7.96289 30.4864,6.7793 h 79.1152 l 30.4883,-6.7793 -30.4883,-7.96289 z m -131.5821,9.48829 -16.8808,7.79492 v 43.7207 l 16.6289,7.96289 16.6289,-7.96289 V 588.3418 Z M 0,580.88672 v 56.76758 l 32.5019,-14.74414 v -34.73828 z m 154.955,0 -32.5019,7.28516 v 34.73828 l 16.125,7.28711 16.3769,-7.28711 z m 64.5489,0 -32.502,7.28516 v 37.28124 l 32.502,14.57227 z m 31.9648,0 v 42.02344 l 16.125,7.28711 16.377,-7.28711 v -34.73828 z m 154.9551,0 -32.5039,7.28516 v 34.73828 l 16.1269,7.28711 16.377,-7.28711 z m 64.5488,0 -32.5039,7.28516 v 37.28124 l 32.5039,14.57227 z m 186.9785,0 v 59.13867 l 32.502,-14.57227 v -37.28124 z m 154.9551,0 -32.5039,7.28516 v 37.28124 l 32.5039,14.57227 z m 32.0469,0 v 56.76758 l 32.5019,-14.74414 v -34.73828 z m 154.9551,0 -32.5039,7.28516 v 34.73828 l 32.5039,14.74414 z M 38.0449,625.45312 5.291,640.02539 h 111.8711 l 16.6289,-7.45508 -16.6289,-7.11719 z m 251.4687,0 -16.6289,7.11719 16.6289,7.45508 h 79.1153 l 16.6289,-7.45508 -16.6289,-7.11719 z m 593.4844,0 -32.7539,14.57227 H 994.6172 L 962.1133,625.45312 Z M 0.0058,667.09375 v 282.90622 c 0,27.7 22.3,50 50,50 h 900.0001 c 27.7,0 50,-22.3 50,-50 V 667.09375 Z m 506.6406,39.99414 c 7.3826,0 12.3396,5.17916 14.875,15.53516 1.4169,5.8618 2.127,14.84819 2.127,26.96289 0,9.76983 -0.2245,19.68893 -0.6719,29.75193 -0.4474,9.5745 -0.6719,19.0488 -0.6719,28.4278 5.4437,-7.0343 11.262,-12.2585 17.4512,-15.6778 6.2641,-3.5173 12.9374,-5.2773 20.0215,-5.2773 12.7517,0 21.9227,4.6892 27.5156,14.0683 4.176,7.0342 6.7107,17.8279 7.6055,32.3848 0.3728,12.017 0.7851,24.0846 1.2324,36.1992 1.1932,15.7293 1.938,25.3053 2.2363,28.7246 1.044,10.8445 2.3133,20.3189 3.8047,28.4278 0.3728,2.0517 0.5606,3.8588 0.5606,5.4218 0,5.471 -1.6059,9.9673 -4.8125,13.4844 -3.1321,3.6148 -6.8237,5.4219 -11.0742,5.4219 -7.5317,0 -12.4172,-4.8866 -14.6543,-14.6563 -1.7898,-7.9136 -3.4288,-19.0483 -4.92,-33.4101 -1.3424,-13.7753 -2.0136,-25.1116 -2.0136,-34.002 0,-2.4425 0.076,-6.1074 0.2246,-10.9922 0.2236,-4.9827 0.3359,-8.6922 0.3359,-11.1347 0,-7.2295 -0.076,-11.431 -0.2246,-12.6035 -0.6712,-5.3732 -2.6097,-8.0606 -5.8164,-8.0606 -8.2774,0 -15.771,4.9819 -22.4824,14.9473 -3.4303,4.9825 -8.1282,14.4607 -14.0938,28.4316 0,35.3664 -1.3059,56.6667 -3.916,63.8965 -2.9082,8.0112 -7.5327,12.0156 -13.8711,12.0156 -4.176,0 -7.9045,-1.8089 -11.1855,-5.4238 -3.2067,-3.7126 -4.8086,-8.2574 -4.8086,-13.6309 0,-1.8563 0.4081,-4.444 1.2285,-7.7656 0.5219,-2.1494 0.9708,-15.3374 1.3437,-39.5664 -0.3729,-19.6374 -0.2973,-52.3184 0.2247,-98.041 l 0.2246,-4.834 c 0.4476,-11.5281 0.6679,-19.2484 0.6679,-23.15624 0,-3.0288 -0.3718,-7.47404 -1.1172,-13.33594 -0.6712,-5.9595 -1.0078,-10.45177 -1.0078,-13.48047 0,-5.5688 1.5305,-10.11355 4.5879,-13.63085 3.0575,-3.6148 6.7491,-5.42188 11.0742,-5.42188 z m 140.379,15.24023 c 4.7727,0 8.8763,2.10359 12.3066,6.30469 3.5047,4.2009 5.2559,9.32942 5.2559,15.38672 0,6.0572 -1.7512,11.18387 -5.2559,15.38474 -3.4303,4.2011 -7.5339,6.3028 -12.3066,6.3028 -4.7724,0 -8.913,-2.1017 -12.418,-6.3028 -3.5048,-4.20087 -5.2559,-9.32754 -5.2559,-15.38474 0,-6.0573 1.7511,-11.18582 5.2559,-15.38672 3.505,-4.2011 7.6456,-6.30469 12.418,-6.30469 z m -459.0606,2.93165 c 8.2029,0 13.6822,6.49623 16.4414,19.49023 1.4915,10.4537 3.8422,26.13567 7.0488,47.04297 4.549,28.1372 10.1037,60.3263 16.6661,96.5723 0.5219,2.7354 2.4239,9.1872 5.705,19.3476 2.6848,8.402 4.0293,14.7015 4.0293,18.9024 0,5.6667 -1.6446,10.4066 -4.9258,14.2168 -3.2066,3.8101 -6.8594,5.6153 -10.9609,5.4199 -5.8911,-0.293 -11.8173,-9.379 -17.7832,-27.2578 -3.9522,-11.5284 -7.3478,-24.814 -10.1816,-39.8594 -5.5184,1.0747 -14.5383,2.1498 -27.0664,3.2246 -11.7821,1.0746 -20.8082,2.3433 -27.0723,3.8086 -3.4302,10.7469 -9.3936,26.9164 -17.8945,48.5078 -3.2813,7.0343 -7.8337,10.5528 -13.6504,10.5528 -4.1013,-2e-4 -7.7911,-1.8091 -11.0723,-5.4239 -3.281,-3.7127 -4.9199,-8.4 -4.9199,-14.0664 0,-4.9826 5.4427,-21.8843 16.3301,-50.7051 -1.0442,-3.0287 -1.491,-5.8641 -1.3418,-8.5019 0.2984,-4.6894 3.9145,-8.3542 10.8496,-10.9922 10.589,-24.0337 22.3703,-48.946 35.3457,-74.7383 18.643,-37.02739 30.128,-55.541 34.4531,-55.541 z m 233.4473,60.8184 c 7.7556,0 16.8144,2.736 27.1797,8.207 12.6026,6.7411 18.9023,14.5041 18.9023,23.2969 0,4.7873 -1.2654,9.0375 -3.8008,12.75 -2.6845,4.0057 -6.1557,6.0097 -10.4062,6.0097 -3.2065,0 -7.0801,-2.2442 -11.6289,-6.7382 -4.4743,-4.5919 -11.2229,-6.8907 -20.2461,-6.8907 -5.7417,0 -11.9722,7.3786 -18.6836,22.1309 -6.4132,14.2638 -9.6172,26.5716 -9.6172,36.9277 0,10.2581 2.8346,18.3178 8.5019,24.1797 5.3692,5.5689 12.4506,8.3535 21.25,8.3535 4.9963,0 11.1141,-2.49 18.3477,-7.4726 7.2332,-4.9825 11.8191,-7.4746 13.7578,-7.4746 4.0269,0 7.4555,1.9065 10.2891,5.7168 2.9084,3.8102 4.3633,8.158 4.3633,13.0429 0,7.6203 -6.3405,15.2409 -19.0176,22.8614 -11.335,6.7413 -20.5814,10.1113 -27.7403,10.1113 -16.4056,0 -30.1622,-6.1062 -41.2734,-18.3184 -11.7076,-12.8962 -17.5625,-29.8975 -17.5625,-51 0,-19.4421 5.2568,-39.5165 15.7715,-60.2285 11.9312,-23.6429 25.8044,-35.4648 41.6133,-35.4648 z M 693,787.10547 c 6.4132,0 10.9987,3.856 13.7578,11.5742 4.2505,11.8214 12.5277,39.4697 24.832,82.9453 3.9521,-11.04 9.3948,-27.8438 16.3301,-50.4121 2.0878,-7.523 5.3327,-18.0235 9.7324,-31.5058 3.0574,-7.8159 7.6799,-11.7246 13.8691,-11.7246 4.176,0 7.868,1.8071 11.0743,5.4218 3.2813,3.6148 4.9199,8.111 4.9199,13.4844 0,3.5173 -6.0365,22.86 -18.1172,58.0313 -9.8432,28.7231 -17.6368,50.755 -23.3789,66.0937 -0.3729,4.8847 -1.9014,8.8893 -4.5859,12.0156 -2.6847,3.1262 -6.005,4.6895 -9.9571,4.6895 -7.5317,0 -12.862,-5.0795 -15.9941,-15.2402 -8.0536,-26.3785 -20.396,-65.7508 -37.0254,-118.1172 -0.9694,-2.9307 -1.4551,-5.7159 -1.4551,-8.3536 0,-5.2758 1.6061,-9.7232 4.8125,-13.3378 3.2811,-3.7127 7.0096,-5.5645 11.1856,-5.5645 z m -360.1797,0.2891 c 14.9143,0 22.3711,12.9949 22.3711,38.9824 0,4.9827 -0.039,8.255 -0.1133,9.8183 -0.6712,14.9476 -5.8526,22.4219 -15.5469,22.4219 -9.3959,0 -14.0937,-6.3482 -14.0937,-19.0488 l -0.5606,-14.8008 c -16.7784,3.517 -28.7822,14.7986 -36.0156,33.8496 l 0.1113,73.7149 c 0,5.5688 -1.4548,10.1604 -4.3633,13.7754 -2.9082,3.7125 -6.6,5.5664 -11.0742,5.5664 -4.6232,0 -8.201,-1.9513 -10.7363,-5.8594 -2.3864,-3.517 -3.582,-8.0114 -3.582,-13.4824 v -95.9903 c 0,-3.0285 0.075,-7.5229 0.2246,-13.4824 0.1484,-6.0573 0.2246,-10.5983 0.2246,-13.6269 0,-5.471 1.2306,-10.0162 3.6914,-13.6309 2.5354,-3.7125 6.115,-5.5684 10.7383,-5.5684 8.2774,0 13.1997,5.5714 14.7656,16.709 13.1993,-12.896 27.8518,-19.3476 43.959,-19.3476 z m 310.5136,0.8808 c 4.4742,0 8.1639,1.8559 11.0723,5.5684 2.9082,3.615 4.3652,8.2554 4.3652,13.9219 0,8.6951 -0.3753,19.5881 -1.121,32.6796 -0.7457,13.0917 -1.1153,23.9846 -1.1153,32.6797 0,5.5688 0.1124,14.5105 0.336,26.8203 0.2981,12.3101 0.4433,21.2477 0.4433,26.8165 0,5.6665 -1.4511,10.3578 -4.3594,14.0703 -2.9084,3.6146 -6.6,5.4199 -11.0742,5.4199 -4.4744,0 -8.1659,-1.8053 -11.0742,-5.4199 -2.9084,-3.7125 -4.3633,-8.4038 -4.3633,-14.0703 0,-5.5688 -0.1517,-14.5064 -0.4492,-26.8165 -0.2239,-12.3098 -0.332,-21.2515 -0.332,-26.8203 0,-8.6951 0.3715,-19.588 1.1172,-32.6797 0.7456,-13.0915 1.1191,-23.9845 1.1191,-32.6796 0,-5.6665 1.4531,-10.3069 4.3613,-13.9219 2.9083,-3.7125 6.5998,-5.5684 11.0742,-5.5684 z m 207.3829,0.4395 c 12.9755,0 23.7525,2.738 32.3281,8.209 11.2603,7.2295 16.8906,18.4624 16.8906,33.7031 0,10.7471 -4.5855,20.2737 -13.7578,28.5781 -4.1761,3.8102 -12.569,9.3759 -25.1719,16.7031 l -37.6933,21.8399 c 3.5793,5.0804 7.9038,8.8874 12.9746,11.4277 5.071,2.5401 10.8869,3.8125 17.4492,3.8125 9.9926,0 18.4574,-2.687 25.3926,-8.0605 6.1893,-4.787 11.1484,-7.1797 14.8769,-7.1797 7.7556,0 11.6348,4.9332 11.6348,14.8008 0,11.1375 -6.2303,20.2214 -18.6836,27.2558 -10.4401,5.8618 -21.5129,8.7949 -33.2207,8.7949 -17.8226,0 -32.4014,-5.5713 -43.7363,-16.7089 -12.5278,-12.3098 -18.7911,-29.6487 -18.7911,-52.0215 0,-24.7176 4.9593,-45.6254 14.877,-62.7227 11.0366,-18.9532 25.9135,-28.4316 44.6309,-28.4316 z m -670.4688,7.1816 c -5.8167,13.0917 -13.8363,30.922 -24.0527,53.4903 3.3559,-0.9769 8.578,-1.7595 15.6621,-2.3457 8.352,-0.684 13.6088,-1.2224 15.7715,-1.6133 -1.7897,-12.7007 -4.249,-29.21 -7.3809,-49.5313 z m 670.4688,28.2832 c -6.935,0 -12.8654,3.0268 -17.7872,9.084 -4.9217,6.0575 -8.8705,15.1432 -11.8535,27.2578 8.4265,-4.7871 16.8159,-9.5235 25.168,-14.2129 10.0672,-5.9598 18.0813,-11.4782 24.0469,-16.5586 -4.9961,-3.7125 -11.5205,-5.5703 -19.5742,-5.5703 z"
     style="opacity:1;vector-effect:none;fill:#005d7a;fill-opacity:1;fill-rule:nonzero;stroke:none;stroke-width:1.00157475;stroke-linecap:butt;stroke-linejoin:miter;stroke-miterlimit:4;stroke-dasharray:none;stroke-dashoffset:0;stroke-opacity:1" />
  <g
     id="g2828"
     transform="matrix(1,0,0,0.8967419,-2904.1114,-784.74612)" />
  <g
     style="font-style:normal;font-weight:normal;font-size:53.91773605px;line-height:125%;font-family:Sans;letter-spacing:0px;word-spacing:0px;fill:#ffffff;fill-opacity:1;stroke:none;stroke-width:0.73732239"
     id="text2987-5"
     transform="matrix(1.3361627,0,0,1.6087118,-2140.6234,-639.1361)" />
  <g
     id="text5083"
     style="font-style:normal;font-variant:normal;font-weight:bold;font-stretch:normal;font-size:132.59362793px;line-height:152.48268127px;font-family:'Comic Sans MS';-inkscape-font-specification:'Comic Sans MS Bold';text-align:center;letter-spacing:0px;word-spacing:0px;text-anchor:middle;fill:#ffffff;fill-opacity:1;stroke:none;stroke-width:1"
     transform="matrix(0.87366116,0,0,1.1446085,-2178.4394,-739.71721)"
     aria-label="The Digital Wossidlo Archive" />
  <g
     transform="translate(-2178.4394,-739.71721)"
     id="text5232"
     style="font-style:italic;font-variant:normal;font-weight:bold;font-stretch:normal;font-size:235.74525452px;line-height:147.34077454px;font-family:'Comic Sans MS';-inkscape-font-specification:'Comic Sans MS Bold Italic';letter-spacing:0px;word-spacing:0px;fill:#ffffff;fill-opacity:1;stroke:none;stroke-width:1"
     aria-label="ossidlo" />
  <g
     id="text5252"
     style="font-style:normal;font-weight:normal;font-size:206.62968445px;line-height:129.14356995px;font-family:sans-serif;letter-spacing:0px;word-spacing:0px;fill:#005d7a;fill-opacity:1;stroke:none;stroke-width:0.99999994"
     transform="matrix(1.2193804,0,0,0.82008863,-1009.494,-181.01933)"
     aria-label="DIGITAL" />
</svg>
